<mxfile host="app.diagrams.net" modified="2023-01-13T11:27:38.303Z" agent="5.0 (Windows)" version="20.8.5" etag="e-n5ZWS4Ub7G9R3RU0uD" type="github">
  <diagram id="S7W_JKNKpZjuoWDYFZR7" name="第 1 页">
    <mxGraphModel dx="825" dy="1698" grid="1" gridSize="10" guides="1" tooltips="1" connect="1" arrows="1" fold="1" page="1" pageScale="1" pageWidth="827" pageHeight="1169" math="0" shadow="0">
      <root>
        <mxCell id="0" />
        <mxCell id="1" parent="0" />
        <mxCell id="NPSx6ZpKnohefdo7ygVm-15" value="5" style="rounded=1;whiteSpace=wrap;html=1;strokeWidth=2;fillWeight=4;hachureGap=8;hachureAngle=45;sketch=1;glass=0;fontSize=24;fontStyle=1;shadow=0;" vertex="1" parent="1">
          <mxGeometry x="120" y="40" width="50" height="50" as="geometry" />
        </mxCell>
        <mxCell id="NPSx6ZpKnohefdo7ygVm-16" value="8" style="rounded=1;whiteSpace=wrap;html=1;strokeWidth=2;fillWeight=4;hachureGap=8;hachureAngle=45;sketch=1;glass=0;fontSize=24;fontStyle=1;shadow=0;" vertex="1" parent="1">
          <mxGeometry x="320" y="40" width="50" height="50" as="geometry" />
        </mxCell>
        <mxCell id="NPSx6ZpKnohefdo7ygVm-17" value="8" style="rounded=1;whiteSpace=wrap;html=1;strokeWidth=2;fillWeight=4;hachureGap=8;hachureAngle=45;sketch=1;glass=0;fontSize=24;fontStyle=1;shadow=0;" vertex="1" parent="1">
          <mxGeometry x="270" y="40" width="50" height="50" as="geometry" />
        </mxCell>
        <mxCell id="NPSx6ZpKnohefdo7ygVm-18" value="7" style="rounded=1;whiteSpace=wrap;html=1;strokeWidth=2;fillWeight=4;hachureGap=8;hachureAngle=45;sketch=1;glass=0;fontSize=24;fontStyle=1;shadow=0;" vertex="1" parent="1">
          <mxGeometry x="220" y="40" width="50" height="50" as="geometry" />
        </mxCell>
        <mxCell id="NPSx6ZpKnohefdo7ygVm-19" value="7" style="rounded=1;whiteSpace=wrap;html=1;strokeWidth=2;fillWeight=4;hachureGap=8;hachureAngle=45;sketch=1;glass=0;fontSize=24;fontStyle=1;shadow=0;" vertex="1" parent="1">
          <mxGeometry x="170" y="40" width="50" height="50" as="geometry" />
        </mxCell>
        <mxCell id="NPSx6ZpKnohefdo7ygVm-20" value="10" style="rounded=1;whiteSpace=wrap;html=1;strokeWidth=2;fillWeight=4;hachureGap=8;hachureAngle=45;sketch=1;glass=0;fontSize=24;fontStyle=1;shadow=0;" vertex="1" parent="1">
          <mxGeometry x="370" y="40" width="50" height="50" as="geometry" />
        </mxCell>
        <mxCell id="NPSx6ZpKnohefdo7ygVm-33" value="num[left,right]" style="text;html=1;align=center;verticalAlign=middle;resizable=0;points=[];autosize=1;strokeColor=none;fillColor=none;fontSize=21;" vertex="1" parent="1">
          <mxGeometry x="200" y="95" width="150" height="40" as="geometry" />
        </mxCell>
        <mxCell id="NPSx6ZpKnohefdo7ygVm-38" value="&lt;font style=&quot;font-size: 36px;&quot;&gt;-∞&lt;/font&gt;" style="rounded=1;whiteSpace=wrap;html=1;fontSize=21;" vertex="1" parent="1">
          <mxGeometry y="35" width="120" height="60" as="geometry" />
        </mxCell>
        <mxCell id="NPSx6ZpKnohefdo7ygVm-39" value="&lt;font style=&quot;font-size: 36px;&quot;&gt;+∞&lt;/font&gt;" style="rounded=1;whiteSpace=wrap;html=1;fontSize=21;" vertex="1" parent="1">
          <mxGeometry x="420" y="35" width="120" height="60" as="geometry" />
        </mxCell>
        <mxCell id="NPSx6ZpKnohefdo7ygVm-41" style="edgeStyle=orthogonalEdgeStyle;rounded=0;orthogonalLoop=1;jettySize=auto;html=1;entryX=0;entryY=0;entryDx=0;entryDy=0;fontSize=21;" edge="1" parent="1" source="NPSx6ZpKnohefdo7ygVm-40" target="NPSx6ZpKnohefdo7ygVm-15">
          <mxGeometry relative="1" as="geometry" />
        </mxCell>
        <mxCell id="NPSx6ZpKnohefdo7ygVm-42" style="edgeStyle=orthogonalEdgeStyle;rounded=0;orthogonalLoop=1;jettySize=auto;html=1;entryX=0;entryY=0;entryDx=0;entryDy=0;fontSize=21;" edge="1" parent="1" source="NPSx6ZpKnohefdo7ygVm-40" target="NPSx6ZpKnohefdo7ygVm-39">
          <mxGeometry relative="1" as="geometry" />
        </mxCell>
        <mxCell id="NPSx6ZpKnohefdo7ygVm-40" value="" style="shape=requiredInterface;html=1;verticalLabelPosition=bottom;sketch=0;fontSize=21;direction=west;rotation=89;" vertex="1" parent="1">
          <mxGeometry x="275.09" y="-30" height="70" as="geometry" />
        </mxCell>
        <mxCell id="NPSx6ZpKnohefdo7ygVm-43" value="left =0" style="text;html=1;align=center;verticalAlign=middle;resizable=0;points=[];autosize=1;strokeColor=none;fillColor=none;fontSize=21;" vertex="1" parent="1">
          <mxGeometry x="80" y="-30" width="80" height="40" as="geometry" />
        </mxCell>
        <mxCell id="NPSx6ZpKnohefdo7ygVm-44" value="right = num.length-1" style="text;html=1;align=center;verticalAlign=middle;resizable=0;points=[];autosize=1;strokeColor=none;fillColor=none;fontSize=21;" vertex="1" parent="1">
          <mxGeometry x="400" y="-30" width="210" height="40" as="geometry" />
        </mxCell>
        <mxCell id="NPSx6ZpKnohefdo7ygVm-45" value="num为待确定空间" style="text;html=1;align=center;verticalAlign=middle;resizable=0;points=[];autosize=1;strokeColor=none;fillColor=none;fontSize=21;" vertex="1" parent="1">
          <mxGeometry x="180" y="-50" width="190" height="40" as="geometry" />
        </mxCell>
        <mxCell id="NPSx6ZpKnohefdo7ygVm-47" value="&lt;font style=&quot;font-size: 20px;&quot;&gt;要求:left-1恒小于target,right+1恒大于等于target&lt;br&gt;&lt;/font&gt;" style="text;html=1;align=center;verticalAlign=middle;resizable=0;points=[];autosize=1;strokeColor=none;fillColor=none;fontSize=36;" vertex="1" parent="1">
          <mxGeometry y="150" width="440" height="60" as="geometry" />
        </mxCell>
        <mxCell id="NPSx6ZpKnohefdo7ygVm-50" style="edgeStyle=orthogonalEdgeStyle;rounded=0;orthogonalLoop=1;jettySize=auto;html=1;fontSize=20;" edge="1" parent="1" source="NPSx6ZpKnohefdo7ygVm-49">
          <mxGeometry relative="1" as="geometry">
            <mxPoint x="520" y="230" as="targetPoint" />
            <Array as="points">
              <mxPoint x="490" y="230" />
              <mxPoint x="490" y="230" />
            </Array>
          </mxGeometry>
        </mxCell>
        <mxCell id="NPSx6ZpKnohefdo7ygVm-49" value="最终结果:肯定是left 大于等于target,right会小于target" style="text;html=1;align=center;verticalAlign=middle;resizable=0;points=[];autosize=1;strokeColor=none;fillColor=none;fontSize=20;" vertex="1" parent="1">
          <mxGeometry y="210" width="490" height="40" as="geometry" />
        </mxCell>
        <mxCell id="NPSx6ZpKnohefdo7ygVm-52" value="最终right &amp;lt; left" style="text;html=1;align=center;verticalAlign=middle;resizable=0;points=[];autosize=1;strokeColor=none;fillColor=none;fontSize=20;" vertex="1" parent="1">
          <mxGeometry x="510" y="210" width="150" height="40" as="geometry" />
        </mxCell>
        <mxCell id="NPSx6ZpKnohefdo7ygVm-53" value="推出循环条件:" style="text;html=1;align=center;verticalAlign=middle;resizable=0;points=[];autosize=1;strokeColor=none;fillColor=none;fontSize=20;" vertex="1" parent="1">
          <mxGeometry y="250" width="150" height="40" as="geometry" />
        </mxCell>
        <mxCell id="NPSx6ZpKnohefdo7ygVm-54" value="while(left&amp;lt;=right)" style="text;html=1;align=center;verticalAlign=middle;resizable=0;points=[];autosize=1;strokeColor=none;fillColor=none;fontSize=20;" vertex="1" parent="1">
          <mxGeometry x="170" y="250" width="170" height="40" as="geometry" />
        </mxCell>
        <mxCell id="NPSx6ZpKnohefdo7ygVm-59" style="edgeStyle=orthogonalEdgeStyle;rounded=0;orthogonalLoop=1;jettySize=auto;html=1;fontSize=20;" edge="1" parent="1" source="NPSx6ZpKnohefdo7ygVm-55" target="NPSx6ZpKnohefdo7ygVm-57">
          <mxGeometry relative="1" as="geometry" />
        </mxCell>
        <mxCell id="NPSx6ZpKnohefdo7ygVm-60" style="edgeStyle=orthogonalEdgeStyle;rounded=0;orthogonalLoop=1;jettySize=auto;html=1;fontSize=20;" edge="1" parent="1" source="NPSx6ZpKnohefdo7ygVm-55" target="NPSx6ZpKnohefdo7ygVm-58">
          <mxGeometry relative="1" as="geometry" />
        </mxCell>
        <mxCell id="NPSx6ZpKnohefdo7ygVm-55" value="根据要求推出循环不变量" style="text;html=1;align=center;verticalAlign=middle;resizable=0;points=[];autosize=1;strokeColor=none;fillColor=none;fontSize=20;" vertex="1" parent="1">
          <mxGeometry y="340" width="240" height="40" as="geometry" />
        </mxCell>
        <mxCell id="NPSx6ZpKnohefdo7ygVm-61" style="edgeStyle=orthogonalEdgeStyle;rounded=0;orthogonalLoop=1;jettySize=auto;html=1;fontSize=20;" edge="1" parent="1" source="NPSx6ZpKnohefdo7ygVm-57">
          <mxGeometry relative="1" as="geometry">
            <mxPoint x="550" y="330" as="targetPoint" />
          </mxGeometry>
        </mxCell>
        <mxCell id="NPSx6ZpKnohefdo7ygVm-57" value="num[left-1] 恒小于target" style="text;html=1;align=center;verticalAlign=middle;resizable=0;points=[];autosize=1;strokeColor=none;fillColor=none;fontSize=20;" vertex="1" parent="1">
          <mxGeometry x="280.00000000000006" y="310" width="230" height="40" as="geometry" />
        </mxCell>
        <mxCell id="NPSx6ZpKnohefdo7ygVm-58" value="num[right+1]恒大于等于target" style="text;html=1;align=center;verticalAlign=middle;resizable=0;points=[];autosize=1;strokeColor=none;fillColor=none;fontSize=20;" vertex="1" parent="1">
          <mxGeometry x="280.00000000000006" y="380" width="290" height="40" as="geometry" />
        </mxCell>
        <mxCell id="NPSx6ZpKnohefdo7ygVm-62" value="num[left-1]=-∞小于target" style="text;html=1;align=center;verticalAlign=middle;resizable=0;points=[];autosize=1;strokeColor=none;fillColor=none;fontSize=20;" vertex="1" parent="1">
          <mxGeometry x="550" y="310" width="240" height="40" as="geometry" />
        </mxCell>
        <mxCell id="NPSx6ZpKnohefdo7ygVm-63" value="num[right+1]=∞恒大于等于target" style="text;html=1;align=center;verticalAlign=middle;resizable=0;points=[];autosize=1;strokeColor=none;fillColor=none;fontSize=20;" vertex="1" parent="1">
          <mxGeometry x="570" y="380" width="310" height="40" as="geometry" />
        </mxCell>
        <mxCell id="NPSx6ZpKnohefdo7ygVm-64" value="最终可以推出:" style="text;html=1;align=center;verticalAlign=middle;resizable=0;points=[];autosize=1;strokeColor=none;fillColor=none;fontSize=20;" vertex="1" parent="1">
          <mxGeometry y="440" width="150" height="40" as="geometry" />
        </mxCell>
        <mxCell id="NPSx6ZpKnohefdo7ygVm-65" value="5" style="rounded=1;whiteSpace=wrap;html=1;strokeWidth=2;fillWeight=4;hachureGap=8;hachureAngle=45;sketch=1;glass=0;fontSize=24;fontStyle=1;shadow=0;fillColor=#dae8fc;strokeColor=#6c8ebf;" vertex="1" parent="1">
          <mxGeometry x="170" y="435" width="50" height="50" as="geometry" />
        </mxCell>
        <mxCell id="NPSx6ZpKnohefdo7ygVm-66" value="8" style="rounded=1;whiteSpace=wrap;html=1;strokeWidth=2;fillWeight=4;hachureGap=8;hachureAngle=45;sketch=1;glass=0;fontSize=24;fontStyle=1;shadow=0;fillColor=#f8cecc;strokeColor=#b85450;" vertex="1" parent="1">
          <mxGeometry x="370" y="435" width="50" height="50" as="geometry" />
        </mxCell>
        <mxCell id="NPSx6ZpKnohefdo7ygVm-67" value="8" style="rounded=1;whiteSpace=wrap;html=1;strokeWidth=2;fillWeight=4;hachureGap=8;hachureAngle=45;sketch=1;glass=0;fontSize=24;fontStyle=1;shadow=0;fillColor=#f8cecc;strokeColor=#b85450;" vertex="1" parent="1">
          <mxGeometry x="320" y="435" width="50" height="50" as="geometry" />
        </mxCell>
        <mxCell id="NPSx6ZpKnohefdo7ygVm-68" value="7" style="rounded=1;whiteSpace=wrap;html=1;strokeWidth=2;fillWeight=4;hachureGap=8;hachureAngle=45;sketch=1;glass=0;fontSize=24;fontStyle=1;shadow=0;fillColor=#dae8fc;strokeColor=#6c8ebf;" vertex="1" parent="1">
          <mxGeometry x="270" y="435" width="50" height="50" as="geometry" />
        </mxCell>
        <mxCell id="NPSx6ZpKnohefdo7ygVm-69" value="7" style="rounded=1;whiteSpace=wrap;html=1;strokeWidth=2;fillWeight=4;hachureGap=8;hachureAngle=45;sketch=1;glass=0;fontSize=24;fontStyle=1;shadow=0;fillColor=#dae8fc;strokeColor=#6c8ebf;" vertex="1" parent="1">
          <mxGeometry x="220" y="435" width="50" height="50" as="geometry" />
        </mxCell>
        <mxCell id="NPSx6ZpKnohefdo7ygVm-70" value="10" style="rounded=1;whiteSpace=wrap;html=1;strokeWidth=2;fillWeight=4;hachureGap=8;hachureAngle=45;sketch=1;glass=0;fontSize=24;fontStyle=1;shadow=0;fillColor=#f8cecc;strokeColor=#b85450;" vertex="1" parent="1">
          <mxGeometry x="420" y="435" width="50" height="50" as="geometry" />
        </mxCell>
        <mxCell id="NPSx6ZpKnohefdo7ygVm-71" value="right" style="text;html=1;align=center;verticalAlign=middle;resizable=0;points=[];autosize=1;strokeColor=none;fillColor=none;fontSize=20;" vertex="1" parent="1">
          <mxGeometry x="265" y="485" width="60" height="40" as="geometry" />
        </mxCell>
        <mxCell id="NPSx6ZpKnohefdo7ygVm-72" value="left" style="text;html=1;align=center;verticalAlign=middle;resizable=0;points=[];autosize=1;strokeColor=none;fillColor=none;fontSize=20;" vertex="1" parent="1">
          <mxGeometry x="320" y="485" width="50" height="40" as="geometry" />
        </mxCell>
        <mxCell id="NPSx6ZpKnohefdo7ygVm-76" style="edgeStyle=orthogonalEdgeStyle;rounded=0;orthogonalLoop=1;jettySize=auto;html=1;fontSize=20;" edge="1" parent="1" source="NPSx6ZpKnohefdo7ygVm-73" target="NPSx6ZpKnohefdo7ygVm-74">
          <mxGeometry relative="1" as="geometry" />
        </mxCell>
        <mxCell id="NPSx6ZpKnohefdo7ygVm-77" style="edgeStyle=orthogonalEdgeStyle;rounded=0;orthogonalLoop=1;jettySize=auto;html=1;fontSize=20;" edge="1" parent="1" source="NPSx6ZpKnohefdo7ygVm-73" target="NPSx6ZpKnohefdo7ygVm-75">
          <mxGeometry relative="1" as="geometry" />
        </mxCell>
        <mxCell id="NPSx6ZpKnohefdo7ygVm-73" value="最后试想" style="text;html=1;align=center;verticalAlign=middle;resizable=0;points=[];autosize=1;strokeColor=none;fillColor=none;fontSize=20;" vertex="1" parent="1">
          <mxGeometry y="630" width="100" height="40" as="geometry" />
        </mxCell>
        <mxCell id="NPSx6ZpKnohefdo7ygVm-91" style="edgeStyle=orthogonalEdgeStyle;rounded=0;orthogonalLoop=1;jettySize=auto;html=1;entryX=0;entryY=0.5;entryDx=0;entryDy=0;fontSize=20;" edge="1" parent="1" source="NPSx6ZpKnohefdo7ygVm-74" target="NPSx6ZpKnohefdo7ygVm-78">
          <mxGeometry relative="1" as="geometry" />
        </mxCell>
        <mxCell id="NPSx6ZpKnohefdo7ygVm-74" value="target = 4" style="text;html=1;align=center;verticalAlign=middle;resizable=0;points=[];autosize=1;strokeColor=none;fillColor=none;fontSize=20;" vertex="1" parent="1">
          <mxGeometry x="130" y="550" width="110" height="40" as="geometry" />
        </mxCell>
        <mxCell id="NPSx6ZpKnohefdo7ygVm-94" style="edgeStyle=orthogonalEdgeStyle;rounded=0;orthogonalLoop=1;jettySize=auto;html=1;entryX=0;entryY=0.4;entryDx=0;entryDy=0;entryPerimeter=0;fontSize=20;" edge="1" parent="1" source="NPSx6ZpKnohefdo7ygVm-75" target="NPSx6ZpKnohefdo7ygVm-84">
          <mxGeometry relative="1" as="geometry" />
        </mxCell>
        <mxCell id="NPSx6ZpKnohefdo7ygVm-75" value="target = 11" style="text;html=1;align=center;verticalAlign=middle;resizable=0;points=[];autosize=1;strokeColor=none;fillColor=none;fontSize=20;" vertex="1" parent="1">
          <mxGeometry x="125" y="700" width="120" height="40" as="geometry" />
        </mxCell>
        <mxCell id="NPSx6ZpKnohefdo7ygVm-78" value="5" style="rounded=1;whiteSpace=wrap;html=1;strokeWidth=2;fillWeight=4;hachureGap=8;hachureAngle=45;sketch=1;glass=0;fontSize=24;fontStyle=1;shadow=0;fillColor=#dae8fc;strokeColor=#6c8ebf;" vertex="1" parent="1">
          <mxGeometry x="330" y="545" width="50" height="50" as="geometry" />
        </mxCell>
        <mxCell id="NPSx6ZpKnohefdo7ygVm-79" value="8" style="rounded=1;whiteSpace=wrap;html=1;strokeWidth=2;fillWeight=4;hachureGap=8;hachureAngle=45;sketch=1;glass=0;fontSize=24;fontStyle=1;shadow=0;fillColor=#f8cecc;strokeColor=#b85450;" vertex="1" parent="1">
          <mxGeometry x="530" y="545" width="50" height="50" as="geometry" />
        </mxCell>
        <mxCell id="NPSx6ZpKnohefdo7ygVm-80" value="8" style="rounded=1;whiteSpace=wrap;html=1;strokeWidth=2;fillWeight=4;hachureGap=8;hachureAngle=45;sketch=1;glass=0;fontSize=24;fontStyle=1;shadow=0;fillColor=#f8cecc;strokeColor=#b85450;" vertex="1" parent="1">
          <mxGeometry x="480" y="545" width="50" height="50" as="geometry" />
        </mxCell>
        <mxCell id="NPSx6ZpKnohefdo7ygVm-81" value="7" style="rounded=1;whiteSpace=wrap;html=1;strokeWidth=2;fillWeight=4;hachureGap=8;hachureAngle=45;sketch=1;glass=0;fontSize=24;fontStyle=1;shadow=0;fillColor=#dae8fc;strokeColor=#6c8ebf;" vertex="1" parent="1">
          <mxGeometry x="430" y="545" width="50" height="50" as="geometry" />
        </mxCell>
        <mxCell id="NPSx6ZpKnohefdo7ygVm-82" value="7" style="rounded=1;whiteSpace=wrap;html=1;strokeWidth=2;fillWeight=4;hachureGap=8;hachureAngle=45;sketch=1;glass=0;fontSize=24;fontStyle=1;shadow=0;fillColor=#dae8fc;strokeColor=#6c8ebf;" vertex="1" parent="1">
          <mxGeometry x="380" y="545" width="50" height="50" as="geometry" />
        </mxCell>
        <mxCell id="NPSx6ZpKnohefdo7ygVm-83" value="10" style="rounded=1;whiteSpace=wrap;html=1;strokeWidth=2;fillWeight=4;hachureGap=8;hachureAngle=45;sketch=1;glass=0;fontSize=24;fontStyle=1;shadow=0;fillColor=#f8cecc;strokeColor=#b85450;" vertex="1" parent="1">
          <mxGeometry x="580" y="545" width="50" height="50" as="geometry" />
        </mxCell>
        <mxCell id="NPSx6ZpKnohefdo7ygVm-84" value="5" style="rounded=1;whiteSpace=wrap;html=1;strokeWidth=2;fillWeight=4;hachureGap=8;hachureAngle=45;sketch=1;glass=0;fontSize=24;fontStyle=1;shadow=0;fillColor=#dae8fc;strokeColor=#6c8ebf;" vertex="1" parent="1">
          <mxGeometry x="330" y="700" width="50" height="50" as="geometry" />
        </mxCell>
        <mxCell id="NPSx6ZpKnohefdo7ygVm-85" value="8" style="rounded=1;whiteSpace=wrap;html=1;strokeWidth=2;fillWeight=4;hachureGap=8;hachureAngle=45;sketch=1;glass=0;fontSize=24;fontStyle=1;shadow=0;fillColor=#f8cecc;strokeColor=#b85450;" vertex="1" parent="1">
          <mxGeometry x="530" y="700" width="50" height="50" as="geometry" />
        </mxCell>
        <mxCell id="NPSx6ZpKnohefdo7ygVm-86" value="8" style="rounded=1;whiteSpace=wrap;html=1;strokeWidth=2;fillWeight=4;hachureGap=8;hachureAngle=45;sketch=1;glass=0;fontSize=24;fontStyle=1;shadow=0;fillColor=#f8cecc;strokeColor=#b85450;" vertex="1" parent="1">
          <mxGeometry x="480" y="700" width="50" height="50" as="geometry" />
        </mxCell>
        <mxCell id="NPSx6ZpKnohefdo7ygVm-87" value="7" style="rounded=1;whiteSpace=wrap;html=1;strokeWidth=2;fillWeight=4;hachureGap=8;hachureAngle=45;sketch=1;glass=0;fontSize=24;fontStyle=1;shadow=0;fillColor=#dae8fc;strokeColor=#6c8ebf;" vertex="1" parent="1">
          <mxGeometry x="430" y="700" width="50" height="50" as="geometry" />
        </mxCell>
        <mxCell id="NPSx6ZpKnohefdo7ygVm-88" value="7" style="rounded=1;whiteSpace=wrap;html=1;strokeWidth=2;fillWeight=4;hachureGap=8;hachureAngle=45;sketch=1;glass=0;fontSize=24;fontStyle=1;shadow=0;fillColor=#dae8fc;strokeColor=#6c8ebf;" vertex="1" parent="1">
          <mxGeometry x="380" y="700" width="50" height="50" as="geometry" />
        </mxCell>
        <mxCell id="NPSx6ZpKnohefdo7ygVm-89" value="10" style="rounded=1;whiteSpace=wrap;html=1;strokeWidth=2;fillWeight=4;hachureGap=8;hachureAngle=45;sketch=1;glass=0;fontSize=24;fontStyle=1;shadow=0;fillColor=#f8cecc;strokeColor=#b85450;" vertex="1" parent="1">
          <mxGeometry x="580" y="700" width="50" height="50" as="geometry" />
        </mxCell>
        <mxCell id="NPSx6ZpKnohefdo7ygVm-92" value="left" style="text;html=1;align=center;verticalAlign=middle;resizable=0;points=[];autosize=1;strokeColor=none;fillColor=none;fontSize=20;" vertex="1" parent="1">
          <mxGeometry x="325" y="595" width="50" height="40" as="geometry" />
        </mxCell>
        <mxCell id="NPSx6ZpKnohefdo7ygVm-93" value="right" style="text;html=1;align=center;verticalAlign=middle;resizable=0;points=[];autosize=1;strokeColor=none;fillColor=none;fontSize=20;" vertex="1" parent="1">
          <mxGeometry x="260" y="595" width="60" height="40" as="geometry" />
        </mxCell>
        <mxCell id="NPSx6ZpKnohefdo7ygVm-95" value="right" style="text;html=1;align=center;verticalAlign=middle;resizable=0;points=[];autosize=1;strokeColor=none;fillColor=none;fontSize=20;" vertex="1" parent="1">
          <mxGeometry x="580" y="750" width="60" height="40" as="geometry" />
        </mxCell>
        <mxCell id="NPSx6ZpKnohefdo7ygVm-96" value="left" style="text;html=1;align=center;verticalAlign=middle;resizable=0;points=[];autosize=1;strokeColor=none;fillColor=none;fontSize=20;" vertex="1" parent="1">
          <mxGeometry x="645" y="750" width="50" height="40" as="geometry" />
        </mxCell>
      </root>
    </mxGraphModel>
  </diagram>
</mxfile>
